<svg width="30" height="30" viewBox="0 0 30 30" fill="none" xmlns="http://www.w3.org/2000/svg">
<g clip-path="url(#clip0_2_839)">
<path d="M6.875 13.1113L2.01375 18.2638C0.715 19.5626 0 21.2888 0 23.1251C0 24.9613 0.715 26.6888 2.01375 27.9863C3.3125 29.2851 5.03875 30.0001 6.875 30.0001C8.71125 30.0001 10.4375 29.2851 11.7362 27.9863C14.4175 25.3051 14.4175 20.9438 11.7613 18.2888L6.875 13.1113ZM9.96875 26.2176C8.31625 27.8701 5.435 27.8701 3.78125 26.2176C2.955 25.3913 2.5 24.2926 2.5 23.1238C2.5 21.9551 2.955 20.8563 3.8075 20.0038L6.875 16.7526L9.96875 20.0301C11.675 21.7363 11.675 24.5113 9.96875 26.2176ZM28.16 11.8201L23.75 7.5076L19.3312 11.8301C16.8937 14.2676 16.8937 18.2326 19.3312 20.6688C20.5112 21.8488 22.0812 22.4988 23.75 22.4988C25.4188 22.4988 26.9887 21.8488 28.17 20.6688C30.6062 18.2313 30.6063 14.2663 28.16 11.8201ZM26.4025 18.9013C24.985 20.3188 22.515 20.3176 21.0987 18.9013C19.6362 17.4388 19.6362 15.0601 21.0888 13.6076L23.75 11.0051L26.4025 13.5976C27.8638 15.0601 27.8638 17.4388 26.4025 18.9013ZM12.5 0.506348L8.965 3.9651C8.02 4.90885 7.5 6.1651 7.5 7.5001C7.5 8.8351 8.02 10.0913 8.96375 11.0351C9.9075 11.9801 11.1637 12.5001 12.5 12.5001C13.8363 12.5001 15.0913 11.9801 16.0363 11.0351C17.9862 9.0851 17.9862 5.91385 16.0263 3.9551L12.5 0.506348ZM14.2688 9.2676C13.3237 10.2126 11.6775 10.2126 10.7337 9.2676C10.2612 8.7951 10.0013 8.1676 10.0013 7.5001C10.0013 6.8326 10.2613 6.2051 10.7238 5.7426L12.5013 4.00385L14.27 5.7326C15.245 6.7076 15.245 8.2926 14.27 9.2676H14.2688Z" fill="#FEA56C"/>
</g>
<defs>
<clipPath id="clip0_2_839">
<rect width="30" height="30" fill="white"/>
</clipPath>
</defs>
</svg>
