<svg width="30" height="30" viewBox="0 0 30 30" fill="none" xmlns="http://www.w3.org/2000/svg">
<g clip-path="url(#clip0_2_831)">
<path d="M29.9626 11.1775L29.8939 9.98122L28.6951 9.99997C20.3101 10.13 16.6189 15.29 15.0001 19.5075C13.3814 15.2887 9.6901 10.13 1.3051 9.99997L0.106354 9.98122L0.0376042 11.1775C-0.236146 15.925 0.973854 19.665 3.6301 22.2937C6.92385 25.5512 11.5089 26.15 13.7501 26.2362V30.0137H16.2501V26.2362C18.4914 26.15 23.0751 25.55 26.3701 22.2937C29.0264 19.665 30.2364 15.9262 29.9626 11.1775ZM5.3776 20.505C3.4851 18.6262 2.52135 15.96 2.5001 12.5637C11.0476 13.3387 13.1114 20.6612 13.6026 23.7225C11.6501 23.61 7.9376 23.0462 5.3776 20.505ZM16.3926 23.7225C16.8726 20.6637 18.9164 13.3362 27.5001 12.5637C27.4789 15.96 26.5151 18.6262 24.6226 20.505C22.0601 23.0475 18.3451 23.61 16.3926 23.7225ZM10.6251 6.87497L8.8576 5.10747L13.2326 0.732471C14.2064 -0.242529 15.7939 -0.242529 16.7676 0.732471L21.1426 5.10747L19.3751 6.87497L16.2501 3.74997V12.5H13.7501V3.74997L10.6251 6.87497Z" fill="#FEA56C"/>
</g>
<defs>
<clipPath id="clip0_2_831">
<rect width="30" height="30" fill="white"/>
</clipPath>
</defs>
</svg>
