<svg width="30" height="30" viewBox="0 0 30 30" fill="none" xmlns="http://www.w3.org/2000/svg">
<g clip-path="url(#clip0_2_823)">
<path d="M30 11.25V13.75H22.1625C22.7013 12.9813 23.1225 12.1438 23.3875 11.25H30ZM6.61253 11.25H2.9297e-05V13.75H7.83753C7.29878 12.9813 6.87753 12.1438 6.61253 11.25ZM24.0338 16.9863C23.15 17.6575 21.8475 17.6563 20.9663 16.9863C19.6825 16.0075 17.8175 16.0088 16.5338 16.9863C15.65 17.6575 14.3475 17.6563 13.4663 16.9863C12.1825 16.0075 10.3175 16.0088 9.03378 16.9863C8.15003 17.6575 6.84753 17.6563 5.96628 16.9863C4.68253 16.0075 2.81753 16.0088 1.53378 16.9863C1.09128 17.3225 0.561279 17.5 -0.0012207 17.5V20C1.11253 20 2.16628 19.6463 3.04753 18.975C3.44003 18.6775 4.05753 18.6763 4.45003 18.975C6.21003 20.315 8.78503 20.3163 10.5475 18.975C10.94 18.6775 11.5575 18.6763 11.95 18.975C13.71 20.315 16.285 20.3163 18.0475 18.975C18.44 18.6775 19.0575 18.6763 19.45 18.975C21.21 20.315 23.785 20.3163 25.5475 18.975C25.94 18.6775 26.5575 18.6763 26.95 18.975C27.83 19.645 28.885 19.9988 29.9975 19.9988V17.4988C29.4363 17.4988 28.905 17.32 28.4638 16.9863C27.18 16.0075 25.315 16.0088 24.0313 16.9863H24.0338ZM1.87503 22.5C0.840029 22.5 2.9297e-05 23.34 2.9297e-05 24.375C2.9297e-05 25.41 0.840029 26.25 1.87503 26.25C2.91003 26.25 3.75003 25.41 3.75003 24.375C3.75003 23.34 2.91003 22.5 1.87503 22.5ZM8.12503 26.25C7.09003 26.25 6.25003 27.09 6.25003 28.125C6.25003 29.16 7.09003 30 8.12503 30C9.16003 30 10 29.16 10 28.125C10 27.09 9.16003 26.25 8.12503 26.25ZM21.875 26.25C20.84 26.25 20 27.09 20 28.125C20 29.16 20.84 30 21.875 30C22.91 30 23.75 29.16 23.75 28.125C23.75 27.09 22.91 26.25 21.875 26.25ZM15 22.5C13.965 22.5 13.125 23.34 13.125 24.375C13.125 25.41 13.965 26.25 15 26.25C16.035 26.25 16.875 25.41 16.875 24.375C16.875 23.34 16.035 22.5 15 22.5ZM28.125 22.5C27.09 22.5 26.25 23.34 26.25 24.375C26.25 25.41 27.09 26.25 28.125 26.25C29.16 26.25 30 25.41 30 24.375C30 23.34 29.16 22.5 28.125 22.5ZM10.5813 13.1688C9.40128 11.9888 8.75003 10.42 8.75003 8.75004C8.75003 7.08004 9.40128 5.51004 10.5813 4.33129L15 0.00878906L19.4088 4.32129C20.5988 5.51004 21.25 7.08004 21.25 8.75004C21.25 10.42 20.5988 11.99 19.4188 13.1688C18.24 14.3488 16.67 15 15 15C13.33 15 11.7613 14.3488 10.5813 13.1688ZM11.25 8.75004C11.25 9.75254 11.64 10.6938 12.3488 11.4013C13.765 12.8188 16.2363 12.8188 17.65 11.4013C18.3588 10.6938 18.75 9.75254 18.75 8.75004C18.75 7.74754 18.3588 6.80629 17.6513 6.09879L15 3.50504L12.3388 6.10879C11.64 6.80754 11.25 7.74879 11.25 8.75004Z" fill="#FEA56C"/>
</g>
<defs>
<clipPath id="clip0_2_823">
<rect width="30" height="30" fill="white"/>
</clipPath>
</defs>
</svg>
