<svg width="30" height="30" viewBox="0 0 30 30" fill="none" xmlns="http://www.w3.org/2000/svg">
<g clip-path="url(#clip0_2_405)">
<path d="M15 0C12.0333 0 9.13319 0.879735 6.66645 2.52796C4.19972 4.17618 2.27713 6.51886 1.14181 9.25975C0.00649929 12.0006 -0.290551 15.0166 0.288228 17.9264C0.867006 20.8361 2.29562 23.5088 4.3934 25.6066C6.49119 27.7044 9.16394 29.133 12.0737 29.7118C14.9834 30.2906 17.9994 29.9935 20.7403 28.8582C23.4811 27.7229 25.8238 25.8003 27.472 23.3336C29.1203 20.8668 30 17.9667 30 15C29.9957 11.0231 28.414 7.21026 25.6019 4.39815C22.7897 1.58604 18.9769 0.00430135 15 0ZM15 2.5C17.8831 2.4977 20.6774 3.49719 22.905 5.3275L5.32751 22.905C3.82821 21.0748 2.87958 18.8564 2.59203 16.508C2.30447 14.1597 2.68983 11.7779 3.70324 9.64005C4.71665 7.50217 6.31643 5.6961 8.31635 4.43205C10.3163 3.16801 12.6341 2.498 15 2.5ZM15 27.5C12.1169 27.5023 9.3226 26.5028 7.09501 24.6725L24.6725 7.095C26.1718 8.9252 27.1204 11.1436 27.408 13.492C27.6955 15.8403 27.3102 18.2221 26.2968 20.36C25.2834 22.4978 23.6836 24.3039 21.6837 25.5679C19.6837 26.832 17.3659 27.502 15 27.5Z" fill="#FEA56C"/>
</g>
<defs>
<clipPath id="clip0_2_405">
<rect width="30" height="30" fill="white"/>
</clipPath>
</defs>
</svg>
