<svg width="30" height="30" viewBox="0 0 30 30" fill="none" xmlns="http://www.w3.org/2000/svg">
<path d="M15 0C6.72875 0 0 6.72875 0 15C0 23.2712 6.72875 30 15 30C23.2712 30 30 23.2712 30 15C30 6.72875 23.2712 0 15 0ZM15 27.5C8.1075 27.5 2.5 21.8925 2.5 15C2.5 13.1325 2.9125 11.36 3.65 9.76625L5.7325 11.955C6.06375 12.3025 6.5225 12.5 7.0025 12.5H9.43875C9.79875 12.5 10.1438 12.6425 10.3988 12.8975L10.865 13.3638C11.1125 13.6112 11.2513 13.9462 11.2513 14.295V15.4988C11.2513 15.98 11.4425 16.44 11.7825 16.78L13.27 18.2675C13.5788 18.5763 13.7525 18.995 13.7525 19.4312V22.3875C13.7525 23.14 14.3625 23.75 15.115 23.75H15.3813C15.9125 23.75 16.395 23.4412 16.6175 22.9588L19.4188 16.8888C19.7525 16.1663 19.4963 15.31 18.8225 14.8875L15.62 12.8862C15.2163 12.6337 14.75 12.5 14.2737 12.5H12.485C12.0962 12.5 11.7225 12.345 11.4475 12.07L10.7075 11.33C10.3175 10.94 10.3175 10.3088 10.7075 9.92L11.3688 9.25875C11.6725 8.955 12.1362 8.88 12.52 9.0725L13.62 9.6225C14.0712 9.84875 14.6175 9.76 14.975 9.4025L14.9788 9.39875C15.36 9.0175 15.4325 8.42625 15.155 7.965L14.1087 6.22C13.89 5.855 13.895 5.4025 14.1262 5.045C14.4962 4.47375 15.1012 3.5425 15.7712 2.525C19.8612 2.775 23.4275 5 25.5225 8.2575L23.535 9.40375C22.9225 9.75625 22.6187 10.4725 22.7913 11.1575L23.575 14.2912C23.6875 14.7412 23.9912 15.1188 24.4062 15.325L27.3725 16.7975C26.4988 22.8412 21.2838 27.5 15.0025 27.5H15Z" fill="#FEA56C"/>
</svg>
