<svg width="66" height="27" viewBox="0 0 66 27" fill="none" xmlns="http://www.w3.org/2000/svg">
<path fill-rule="evenodd" clip-rule="evenodd" d="M59.0078 17.345H59.0547L62.8828 7.73759H65.5732L57.3018 27.0003H54.75L57.8242 20.262L52.3975 7.73759H55.0879L59.0078 17.345ZM46.0645 7.30009C47.8938 7.30017 49.3387 7.79994 50.3994 8.78252C51.4601 9.76508 51.9833 11.1373 51.9834 12.8685V21.1204H49.6152V19.264H49.5078C48.4778 20.7925 47.1245 21.5569 45.418 21.5569C43.973 21.5569 42.7429 21.1198 41.7744 20.2464C40.8214 19.4353 40.2837 18.2343 40.3145 16.971C40.3145 15.5828 40.8371 14.491 41.8672 13.6644C42.8972 12.8378 44.2811 12.4319 46.0029 12.4319C47.4787 12.432 48.6777 12.7132 49.6309 13.2435V12.6663C49.6309 11.8085 49.2618 10.9973 48.6162 10.4358C47.9552 9.84318 47.1096 9.515 46.2334 9.51494C44.8497 9.51494 43.7575 10.1078 42.958 11.2933L40.7754 9.90556C41.9438 8.17423 43.7122 7.30009 46.0645 7.30009ZM34.334 1.56084C35.9175 1.52964 37.4548 2.138 38.5771 3.26103C40.8216 5.38219 40.9604 8.95353 38.8545 11.2464L38.5771 11.5276C37.4241 12.6349 36.0097 13.1966 34.334 13.1966H30.2441V21.1204H27.7695V1.56084H34.334ZM46.3877 14.4602C45.3884 14.4603 44.5427 14.7092 43.8662 15.1927C43.205 15.6762 42.8672 16.2848 42.8672 17.0179C42.8672 17.6729 43.1742 18.2812 43.6816 18.6556C44.2351 19.0922 44.9117 19.3264 45.6035 19.3108C46.6491 19.3108 47.6487 18.8895 48.3867 18.1409C49.2017 17.3611 49.6172 16.4408 49.6172 15.3802C48.8484 14.7563 47.7716 14.4447 46.3877 14.4602ZM30.2451 10.7942H34.3965C35.3191 10.8254 36.2114 10.4513 36.8418 9.78056C38.1332 8.42364 38.1021 6.24014 36.7646 4.92998C36.1342 4.30607 35.2883 3.9622 34.3965 3.9622H30.2451V10.7942Z" fill="white"/>
<path d="M21.6958 11.4805C21.6958 10.7162 21.6343 9.95193 21.5113 9.20325H11.0723V13.5238H17.0528C16.8068 14.912 16.0074 16.1598 14.8389 16.9397V19.7472H18.4057C20.4966 17.7975 21.6958 14.912 21.6958 11.4805Z" fill="#4285F4"/>
<path d="M11.0721 22.4612C14.0547 22.4612 16.576 21.463 18.4056 19.7472L14.8388 16.9397C13.8394 17.626 12.5634 18.0159 11.0721 18.0159C8.18175 18.0159 5.73727 16.035 4.86094 13.3834H1.18652V16.2846C3.06217 20.0748 6.89033 22.4612 11.0721 22.4612Z" fill="#34A853"/>
<path d="M4.86284 13.3835C4.40155 11.9953 4.40155 10.4823 4.86284 9.07852V6.19296H1.18784C-0.395947 9.35928 -0.395947 13.1027 1.18784 16.269L4.86284 13.3835Z" fill="#FBBC04"/>
<path d="M11.0721 4.446C12.6556 4.4148 14.1777 5.02311 15.3154 6.13054L18.4824 2.91743C16.4684 1.01452 13.8241 -0.0305164 11.0721 0.000678823C6.89033 0.000678823 3.06217 2.40271 1.18652 6.19293L4.86094 9.09408C5.73727 6.42689 8.18175 4.446 11.0721 4.446Z" fill="#EA4335"/>
</svg>
