<svg width="57" height="33" viewBox="0 0 57 33" fill="none" xmlns="http://www.w3.org/2000/svg">
<path d="M39.6562 0C49.1897 0.000115812 56.918 7.1762 56.918 16.0283C56.918 24.8804 49.1897 32.0565 39.6562 32.0566C35.3831 32.0566 31.4734 30.6137 28.459 28.2256C25.4445 30.6137 21.5349 32.0566 17.2617 32.0566C7.72814 32.0566 6.66158e-06 24.8805 0 16.0283C0 7.17613 7.72814 0 17.2617 0C21.5347 2.35175e-05 25.4446 1.44213 28.459 3.83008C31.4734 1.44221 35.3834 0 39.6562 0Z" fill="#ED0006"/>
<path d="M39.6553 0C49.1888 0.000115573 56.917 7.1762 56.917 16.0283C56.917 24.8804 49.1887 32.0565 39.6553 32.0566C35.3827 32.0566 31.4733 30.6141 28.459 28.2266C32.1704 25.2867 34.5244 20.9131 34.5244 16.0283C34.5244 11.1433 32.1706 6.76899 28.459 3.8291C31.4732 1.44175 35.3829 0 39.6553 0Z" fill="#F9A000"/>
<path d="M28.459 3.83029C32.1706 6.77018 34.5254 11.1435 34.5254 16.0285C34.5253 20.9133 32.1704 25.286 28.459 28.2258C24.748 25.286 22.3936 20.913 22.3936 16.0285C22.3936 11.1439 24.7478 6.77017 28.459 3.83029Z" fill="#FF5E00"/>
</svg>
