<svg width="30" height="30" viewBox="0 0 30 30" fill="none" xmlns="http://www.w3.org/2000/svg">
<path d="M15 0C11.0231 0.00430135 7.21026 1.58604 4.39815 4.39815C1.58604 7.21026 0.00430135 11.0231 0 15C0.75 34.875 29.25 34.8662 30 15C29.9957 11.0231 28.414 7.21026 25.6019 4.39815C22.7897 1.58604 18.9769 0.00430135 15 0ZM15 27.5C11.6859 27.4964 8.5086 26.1782 6.16518 23.8348C3.82177 21.4914 2.50364 18.3141 2.5 15C3.125 -1.56 26.875 -1.555 27.5 15C27.4964 18.3141 26.1782 21.4914 23.8348 23.8348C21.4914 26.1782 18.3141 27.4964 15 27.5ZM8.75 11.875C8.75 11.3777 8.94754 10.9008 9.29917 10.5492C9.65081 10.1975 10.1277 10 10.625 10C11.1223 10 11.5992 10.1975 11.9508 10.5492C12.3025 10.9008 12.5 11.3777 12.5 11.875C12.5 12.3723 12.3025 12.8492 11.9508 13.2008C11.5992 13.5525 11.1223 13.75 10.625 13.75C10.1277 13.75 9.65081 13.5525 9.29917 13.2008C8.94754 12.8492 8.75 12.3723 8.75 11.875ZM17.5 11.875C17.5 11.3777 17.6975 10.9008 18.0492 10.5492C18.4008 10.1975 18.8777 10 19.375 10C19.8723 10 20.3492 10.1975 20.7008 10.5492C21.0525 10.9008 21.25 11.3777 21.25 11.875C21.25 12.3723 21.0525 12.8492 20.7008 13.2008C20.3492 13.5525 19.8723 13.75 19.375 13.75C18.8777 13.75 18.4008 13.5525 18.0492 13.2008C17.6975 12.8492 17.5 12.3723 17.5 11.875ZM22.3025 19.4275C21.568 20.7223 20.5076 21.8025 19.2266 22.5608C17.9456 23.319 16.4885 23.729 15 23.75C13.5105 23.7292 12.0523 23.3194 10.77 22.5611C9.48774 21.8029 8.42597 20.7227 7.69 19.4275C7.5571 19.2201 7.48847 18.978 7.49271 18.7317C7.49696 18.4853 7.5739 18.2458 7.71386 18.043C7.85383 17.8403 8.05058 17.6834 8.2794 17.5922C8.50823 17.5009 8.75892 17.4793 9 17.53C10.9221 18.2542 12.9477 18.666 15 18.75C17.0489 18.665 19.0711 18.2531 20.99 17.53C21.2313 17.4786 21.4823 17.4998 21.7116 17.5908C21.9409 17.6818 22.1381 17.8386 22.2784 18.0415C22.4187 18.2444 22.4959 18.4842 22.5002 18.7309C22.5045 18.9775 22.4357 19.2199 22.3025 19.4275Z" fill="#FEA56C"/>
</svg>
